<svg xmlns="http://www.w3.org/2000/svg" xmlns:xlink="http://www.w3.org/1999/xlink" xmlns:sketch="http://www.bohemiancoding.com/sketch/ns" viewBox="0 0 100 125" version="1.1" x="0px" y="0px"><title>Path-7</title><desc>Created with Sketch.</desc><g stroke="none" stroke-width="1" fill="none" fill-rule="evenodd" sketch:type="MSPage"><path d="M49.8218435,28.0156452 L36.8809818,40.6888896 L36.9191358,91.7620651 C36.9200591,92.9980423 35.9299308,93.9999997 34.7081229,93.9999995 L27.3328526,93.9999984 C26.1108206,93.9999982 25.1201679,92.9980732 25.1201679,91.7632514 L25.1201679,65.0152604 L23.6252545,65.0152604 L23.6252545,91.7632514 C23.6252545,92.9985725 22.6345913,93.9999983 21.4111938,93.9999985 L13.9196612,94 C12.6968692,94.0000003 11.7039879,92.9986424 11.7019972,91.7624737 L11.6571351,63.9036898 L7.68001432,63.9036899 C6.45787295,63.9036899 5.4671316,62.9025888 5.4671316,61.666741 L5.46713161,35.8337904 C5.46713161,32.1272313 8.43934017,29.1224713 12.105774,29.1224713 C12.105774,29.1224713 34.6007238,29.1229054 34.6265835,29.1237666 L42.795088,21.3991585 L49.8218435,28.0156452 L49.8218435,28.0156452 Z M58.0132437,19.9916265 C58.834959,19.1273729 58.8130888,17.7788599 57.9517131,16.9411762 L54.3983182,13.4855168 C53.5171726,12.628607 52.0797472,12.6190501 51.1869118,13.4633668 L51.1336632,13.5137217 L58.0132437,19.9916265 L58.0132437,19.9916265 Z M23.0171861,27.6793845 C28.9403538,27.6793845 33.7420299,22.826289 33.7420299,16.8396922 C33.7420299,10.8530955 28.9403538,6 23.0171861,6 C17.0940184,6 12.2923422,10.8530955 12.2923422,16.8396922 C12.2923422,22.826289 17.0940184,27.6793845 23.0171861,27.6793845 L23.0171861,27.6793845 Z M88.8284891,29.1224713 C92.494923,29.1224713 95.4671316,32.1272313 95.4671316,35.8337904 L95.4671316,61.666741 C95.4671316,62.9025888 94.4763902,63.9036899 93.2542488,63.9036899 L89.2771281,63.9036898 L89.2322659,91.7624737 C89.2302753,92.9986424 88.2373939,94.0000003 87.014602,94 L79.5230693,93.9999985 C78.2996719,93.9999983 77.3090086,92.9985725 77.3090086,91.7632514 L77.3090086,65.0152604 L75.8140953,65.0152604 L75.8140953,91.7632514 C75.8140953,92.9980732 74.8234426,93.9999982 73.6014106,93.9999984 L66.2261404,93.9999995 C65.0043324,93.9999997 64.0142041,92.9980423 64.0151275,91.7620651 L64.0151282,40.3970231 L42.9778223,20.0492714 C42.0987449,19.1883734 42.1017747,17.797726 42.9825501,16.9411762 L46.5359449,13.4855168 C47.4170906,12.628607 48.854516,12.6190501 49.7473515,13.4633668 L66.3076797,29.1237666 C66.3335395,29.1229054 88.8284891,29.1224713 88.8284891,29.1224713 L88.8284891,29.1224713 Z M77.9170771,27.6793845 C71.9939094,27.6793845 67.1922332,22.826289 67.1922332,16.8396922 C67.1922332,10.8530955 71.9939094,6 77.9170771,6 C83.8402448,6 88.641921,10.8530955 88.641921,16.8396922 C88.641921,22.826289 83.8402448,27.6793845 77.9170771,27.6793845 L77.9170771,27.6793845 Z" fill-opacity="1.0" fill="#000000" sketch:type="MSShapeGroup"/></g><text x="0" y="115" fill="#000000" font-size="5px" font-weight="bold" font-family="'Helvetica Neue', Helvetica, Arial-Unicode, Arial, Sans-serif">Created by Tom Ingebretsen</text><text x="0" y="120" fill="#000000" font-size="5px" font-weight="bold" font-family="'Helvetica Neue', Helvetica, Arial-Unicode, Arial, Sans-serif">join by Tom Ingebretsen from the Noun Project</text></svg>